<svg width="63" height="60" viewBox="0 0 63 60" fill="none" xmlns="http://www.w3.org/2000/svg">
<path d="M61.2397 27.4637L48.7744 38.2199L52.5722 54.3056C52.7817 55.1788 52.7278 56.0945 52.4171 56.9371C52.1065 57.7796 51.5531 58.5112 50.8269 59.0395C50.1006 59.5677 49.2342 59.8688 48.3369 59.9048C47.4396 59.9408 46.5518 59.7101 45.7855 59.2418L31.7968 50.6325L17.7997 59.2418C17.0336 59.7074 16.1468 59.9359 15.2511 59.8986C14.3553 59.8613 13.4907 59.5597 12.766 59.032C12.0413 58.5042 11.4889 57.7738 11.1785 56.9328C10.868 56.0917 10.8134 55.1776 11.0214 54.3056L14.833 38.2199L2.36774 27.4637C1.6899 26.8779 1.19968 26.1054 0.958286 25.2426C0.716897 24.3798 0.735042 23.465 1.01045 22.6125C1.28587 21.7599 1.80634 21.0074 2.50687 20.4489C3.20741 19.8904 4.05696 19.5507 4.94943 19.4721L21.2927 18.1536L27.5974 2.89615C27.9386 2.06463 28.5194 1.35336 29.266 0.852787C30.0125 0.35221 30.891 0.0849304 31.7899 0.0849304C32.6887 0.0849304 33.5672 0.35221 34.3137 0.852787C35.0603 1.35336 35.6411 2.06463 35.9823 2.89615L42.2842 18.1536L58.6275 19.4721C59.5218 19.5478 60.3738 19.8856 61.0769 20.4433C61.7799 21.0011 62.3028 21.7539 62.5799 22.6074C62.8571 23.461 62.8761 24.3774 62.6348 25.2417C62.3934 26.1061 61.9023 26.88 61.2231 27.4665L61.2397 27.4637Z" fill="black" style="fill:black;fill-opacity:1;"/>
</svg>
