<svg width="95" height="63" viewBox="0 0 95 63" fill="none" xmlns="http://www.w3.org/2000/svg">
<path d="M65.1929 30.3243C72.5806 30.3243 78.9364 23.7277 78.9364 15.1374C78.9364 6.65075 72.5472 0.363556 65.1929 0.363556C57.8403 0.363556 51.4494 6.7879 51.4494 15.206C51.4494 23.7277 57.8051 30.3243 65.1929 30.3243ZM25.6449 31.1155C32.0358 31.1155 37.6038 25.3417 37.6038 17.8854C37.6038 10.4993 32.0007 5.03505 25.6449 5.03505C19.2557 5.03505 13.6191 10.6365 13.6543 17.9557C13.6543 25.3417 19.2206 31.1155 25.6466 31.1155M6.47392 62.1417H32.5861C29.0135 56.9533 33.3772 46.5081 40.765 40.8047C36.9515 38.2624 32.0358 36.3724 25.6115 36.3724C10.1151 36.3707 0.425903 47.8111 0.425903 57.3297C0.425903 60.4239 2.14363 62.1417 6.47392 62.1417ZM43.5816 62.1417H86.7707C92.1648 62.1417 94.0899 60.5945 94.0899 57.5705C94.0899 48.7059 82.9907 36.4744 65.1594 36.4744C47.3616 36.4744 36.2624 48.7059 36.2624 57.5722C36.2624 60.5945 38.1859 62.1417 43.5816 62.1417Z" fill="black" style="fill:black;fill-opacity:1;"/>
</svg>
