<svg width="62" height="62" viewBox="0 0 62 62" fill="none" xmlns="http://www.w3.org/2000/svg">
<path d="M31.0272 38.6144C29.4708 38.6157 27.9491 38.1548 26.6552 37.2899C25.3612 36.425 24.3534 35.1952 23.7595 33.7566C23.1657 32.318 23.0126 30.7354 23.3196 29.2097C23.6267 27.6839 24.3801 26.2837 25.4842 25.1868C25.6925 24.9805 25.9393 24.8173 26.2107 24.7064C26.482 24.5955 26.7726 24.5391 27.0657 24.5405C27.3588 24.5418 27.6488 24.6009 27.9191 24.7144C28.1894 24.8278 28.4347 24.9934 28.641 25.2017C28.8473 25.4099 29.0106 25.6568 29.1215 25.9281C29.2324 26.1995 29.2888 26.49 29.2874 26.7831C29.286 27.0763 29.2269 27.3663 29.1135 27.6366C29 27.9069 28.8345 28.1522 28.6262 28.3585C28.3064 28.6711 28.0525 29.0446 27.8794 29.457C27.7064 29.8694 27.6176 30.3122 27.6184 30.7594C27.579 31.4634 27.7608 32.1621 28.1383 32.7576C28.5159 33.3531 29.0702 33.8156 29.7238 34.0803C30.3773 34.345 31.0973 34.3986 31.7828 34.2336C32.4683 34.0687 33.0851 33.6934 33.5467 33.1604C33.9685 32.7422 34.5385 32.5076 35.1325 32.5076C35.7265 32.5076 36.2964 32.7422 36.7183 33.1604C37.1294 33.5859 37.3592 34.1545 37.3592 34.7462C37.3592 35.3379 37.1294 35.9064 36.7183 36.332C35.9692 37.0719 35.08 37.6548 34.1027 38.0467C33.1255 38.4386 32.0799 38.6316 31.0272 38.6144Z" fill="black" style="fill:black;fill-opacity:1;"/>
<path d="M61.408 30.759C61.408 38.8169 58.207 46.5448 52.5092 52.2426C46.8114 57.9404 39.0835 61.1414 31.0256 61.1414C22.9677 61.1414 15.2398 57.9404 9.54203 52.2426C3.84424 46.5448 0.64325 38.8169 0.64325 30.759C0.64325 22.7011 3.84424 14.9732 9.54203 9.27545C15.2398 3.57765 22.9677 0.376663 31.0256 0.376663C31.6152 0.376663 32.1807 0.610882 32.5976 1.02779C33.0145 1.44471 33.2487 2.01016 33.2487 2.59976V13.8635C33.241 14.4507 33.0043 15.0117 32.5891 15.4269C32.1738 15.8422 31.6128 16.0789 31.0256 16.0866C28.1227 16.0666 25.2814 16.9241 22.8742 18.5468C20.4535 20.1511 18.5657 22.4404 17.4517 25.1223C16.3378 27.8043 16.0482 30.7573 16.6199 33.6046C17.5497 36.9824 19.6461 39.9217 22.5371 41.9008C25.428 43.8799 28.9267 44.7708 32.4121 44.4155C35.8975 44.0602 39.1444 42.4817 41.5766 39.96C44.0088 37.4383 45.469 34.1365 45.6981 30.6404C45.6941 30.3474 45.7488 30.0565 45.8592 29.785C45.9695 29.5135 46.1331 29.2668 46.3403 29.0596C46.5475 28.8524 46.7942 28.6888 47.0657 28.5785C47.3372 28.4681 47.6281 28.4134 47.9212 28.4174H59.1849C59.487 28.4169 59.7862 28.4781 60.0639 28.5972C60.3417 28.7162 60.5922 28.8907 60.8003 29.1098C61.0083 29.329 61.1695 29.5883 61.274 29.8718C61.3785 30.1554 61.4241 30.4573 61.408 30.759Z" fill="black" style="fill:black;fill-opacity:1;"/>
<path d="M60.3409 13.36C60.2635 13.9367 60.0275 14.4806 59.6591 14.931L53.227 21.3632C52.3122 22.2816 51.1806 22.9545 49.9368 23.3195C49.2071 23.5436 48.4473 23.6536 47.684 23.6456C47.1614 23.6919 46.6357 23.6919 46.113 23.6456L42.1707 22.8749L35.4125 29.6628C34.9875 30.0669 34.4278 30.2993 33.8415 30.3149C33.2521 30.3144 32.6871 30.0798 32.2705 29.6628C32.0608 29.4584 31.8941 29.2141 31.7803 28.9443C31.6665 28.6745 31.6078 28.3846 31.6078 28.0918C31.6078 27.7989 31.6665 27.5091 31.7803 27.2393C31.8941 26.9694 32.0608 26.7251 32.2705 26.5208L39.0584 19.7033L38.2581 15.7906C38.0189 14.5295 38.0798 13.2298 38.4359 11.9965C38.801 10.7527 39.4738 9.6211 40.3923 8.70635L46.7651 2.33347C47.2031 1.93512 47.7502 1.67703 48.3361 1.59243C48.8844 1.51299 49.4439 1.60623 49.9368 1.85921C50.4259 2.10799 50.8363 2.48766 51.1224 2.95594C51.4119 3.47994 51.5359 4.0793 51.4781 4.67513L50.5296 11.3741L57.1989 10.4552C57.7572 10.4004 58.319 10.5154 58.8108 10.7851C59.3026 11.0548 59.7016 11.4667 59.9555 11.9669C60.197 12.3924 60.3294 12.871 60.3409 13.36Z" fill="black" style="fill:black;fill-opacity:1;"/>
</svg>
