<svg width="59" height="58" viewBox="0 0 59 58" fill="none" xmlns="http://www.w3.org/2000/svg">
<path d="M0.92852 54.5691C0.92852 55.3829 1.25178 56.1633 1.82719 56.7387C2.4026 57.3141 3.18302 57.6374 3.99677 57.6374H55.1343C55.948 57.6374 56.7284 57.3141 57.3039 56.7387C57.8793 56.1633 58.2025 55.3829 58.2025 54.5691V18.7729H0.92852V54.5691ZM41.8385 23.3752C41.8385 23.2396 41.8924 23.1095 41.9883 23.0136C42.0842 22.9177 42.2143 22.8639 42.3499 22.8639H47.4636C47.5993 22.8639 47.7293 22.9177 47.8252 23.0136C47.9212 23.1095 47.975 23.2396 47.975 23.3752V28.489C47.975 28.6246 47.9212 28.7547 47.8252 28.8506C47.7293 28.9465 47.5993 29.0004 47.4636 29.0004H42.3499C42.2143 29.0004 42.0842 28.9465 41.9883 28.8506C41.8924 28.7547 41.8385 28.6246 41.8385 28.489V23.3752ZM41.8385 33.6027C41.8385 33.4671 41.8924 33.337 41.9883 33.2411C42.0842 33.1452 42.2143 33.0914 42.3499 33.0914H47.4636C47.5993 33.0914 47.7293 33.1452 47.8252 33.2411C47.9212 33.337 47.975 33.4671 47.975 33.6027V38.7165C47.975 38.8521 47.9212 38.9822 47.8252 39.0781C47.7293 39.174 47.5993 39.2279 47.4636 39.2279H42.3499C42.2143 39.2279 42.0842 39.174 41.9883 39.0781C41.8924 38.9822 41.8385 38.8521 41.8385 38.7165V33.6027ZM31.611 23.3752C31.611 23.2396 31.6649 23.1095 31.7608 23.0136C31.8567 22.9177 31.9868 22.8639 32.1224 22.8639H37.2361C37.3718 22.8639 37.5018 22.9177 37.5977 23.0136C37.6936 23.1095 37.7475 23.2396 37.7475 23.3752V28.489C37.7475 28.6246 37.6936 28.7547 37.5977 28.8506C37.5018 28.9465 37.3718 29.0004 37.2361 29.0004H32.1224C31.9868 29.0004 31.8567 28.9465 31.7608 28.8506C31.6649 28.7547 31.611 28.6246 31.611 28.489V23.3752ZM31.611 33.6027C31.611 33.4671 31.6649 33.337 31.7608 33.2411C31.8567 33.1452 31.9868 33.0914 32.1224 33.0914H37.2361C37.3718 33.0914 37.5018 33.1452 37.5977 33.2411C37.6936 33.337 37.7475 33.4671 37.7475 33.6027V38.7165C37.7475 38.8521 37.6936 38.9822 37.5977 39.0781C37.5018 39.174 37.3718 39.2279 37.2361 39.2279H32.1224C31.9868 39.2279 31.8567 39.174 31.7608 39.0781C31.6649 38.9822 31.611 38.8521 31.611 38.7165V33.6027ZM31.611 43.8302C31.611 43.6946 31.6649 43.5645 31.7608 43.4686C31.8567 43.3727 31.9868 43.3189 32.1224 43.3189H37.2361C37.3718 43.3189 37.5018 43.3727 37.5977 43.4686C37.6936 43.5645 37.7475 43.6946 37.7475 43.8302V48.944C37.7475 49.0796 37.6936 49.2097 37.5977 49.3056C37.5018 49.4015 37.3718 49.4554 37.2361 49.4554H32.1224C31.9868 49.4554 31.8567 49.4015 31.7608 49.3056C31.6649 49.2097 31.611 49.0796 31.611 48.944V43.8302ZM21.3835 33.6027C21.3835 33.4671 21.4374 33.337 21.5333 33.2411C21.6292 33.1452 21.7593 33.0914 21.8949 33.0914H27.0086C27.1443 33.0914 27.2743 33.1452 27.3702 33.2411C27.4661 33.337 27.52 33.4671 27.52 33.6027V38.7165C27.52 38.8521 27.4661 38.9822 27.3702 39.0781C27.2743 39.174 27.1443 39.2279 27.0086 39.2279H21.8949C21.7593 39.2279 21.6292 39.174 21.5333 39.0781C21.4374 38.9822 21.3835 38.8521 21.3835 38.7165V33.6027ZM21.3835 43.8302C21.3835 43.6946 21.4374 43.5645 21.5333 43.4686C21.6292 43.3727 21.7593 43.3189 21.8949 43.3189H27.0086C27.1443 43.3189 27.2743 43.3727 27.3702 43.4686C27.4661 43.5645 27.52 43.6946 27.52 43.8302V48.944C27.52 49.0796 27.4661 49.2097 27.3702 49.3056C27.2743 49.4015 27.1443 49.4554 27.0086 49.4554H21.8949C21.7593 49.4554 21.6292 49.4015 21.5333 49.3056C21.4374 49.2097 21.3835 49.0796 21.3835 48.944V43.8302ZM11.156 33.6027C11.156 33.4671 11.2099 33.337 11.3058 33.2411C11.4017 33.1452 11.5318 33.0914 11.6674 33.0914H16.7811C16.9168 33.0914 17.0468 33.1452 17.1427 33.2411C17.2386 33.337 17.2925 33.4671 17.2925 33.6027V38.7165C17.2925 38.8521 17.2386 38.9822 17.1427 39.0781C17.0468 39.174 16.9168 39.2279 16.7811 39.2279H11.6674C11.5318 39.2279 11.4017 39.174 11.3058 39.0781C11.2099 38.9822 11.156 38.8521 11.156 38.7165V33.6027ZM11.156 43.8302C11.156 43.6946 11.2099 43.5645 11.3058 43.4686C11.4017 43.3727 11.5318 43.3189 11.6674 43.3189H16.7811C16.9168 43.3189 17.0468 43.3727 17.1427 43.4686C17.2386 43.5645 17.2925 43.6946 17.2925 43.8302V48.944C17.2925 49.0796 17.2386 49.2097 17.1427 49.3056C17.0468 49.4015 16.9168 49.4554 16.7811 49.4554H11.6674C11.5318 49.4554 11.4017 49.4015 11.3058 49.3056C11.2099 49.2097 11.156 49.0796 11.156 48.944V43.8302ZM55.1343 4.45436H47.9853V0.363358H41.8488V4.45436H17.2823V0.363358H11.1458V4.45436H3.99677C3.59538 4.45098 3.19728 4.52707 2.82542 4.67823C2.45356 4.82938 2.11528 5.05263 1.83008 5.3351C1.54488 5.61757 1.31839 5.95368 1.16366 6.32406C1.00893 6.69445 0.929012 7.0918 0.92852 7.4932V14.6819H58.2025V7.4932C58.202 7.0918 58.1221 6.69445 57.9674 6.32406C57.8127 5.95368 57.5862 5.61757 57.301 5.3351C57.0158 5.05263 56.6775 4.82938 56.3056 4.67823C55.9338 4.52707 55.5357 4.45098 55.1343 4.45436Z" fill="black" style="fill:black;fill-opacity:1;"/>
</svg>
